PathFileType	4	(X/Y/Z)	W18_1_OpenSim.trc																																																																																																																						
DataRate	CameraRate	NumFrames	NumMarkers	Units	OrigDataRate	OrigDataStartFrame	OrigNumFrames																																																																																																																		
100	100	10	40	mm	100	2626	3000																																																																																																																		
Frame#	Time	R.ASIS			R.PSIS			S2			L.PSIS			L.ASIS			R.TH1			R.TH2			R.TH3			R.MKnee			R.Knee			R.SH1			R.SH2			R.SH3			R.SH4			R.Ankle			R.MAnkle			R.Heel			R.MT5			R.MT1			L.TH1			L.TH2			L.TH3			L.TH4			L.MKnee			L.Knee			L.SH1			L.SH2			L.SH3			L.Ankle			L.MAnkle			L.Heel			L.MT5			L.MT1			R.Acr			L.Acr			C7			T10			Clav			Sternum			R.Back		
		X1	Y1	Z1	X2	Y2	Z2	X3	Y3	Z3	X4	Y4	Z4	X5	Y5	Z5	X6	Y6	Z6	X7	Y7	Z7	X8	Y8	Z8	X9	Y9	Z9	X10	Y10	Z10	X11	Y11	Z11	X12	Y12	Z12	X13	Y13	Z13	X14	Y14	Z14	X15	Y15	Z15	X16	Y16	Z16	X17	Y17	Z17	X18	Y18	Z18	X19	Y19	Z19	X20	Y20	Z20	X21	Y21	Z21	X22	Y22	Z22	X23	Y23	Z23	X24	Y24	Z24	X25	Y25	Z25	X26	Y26	Z26	X27	Y27	Z27	X28	Y28	Z28	X29	Y29	Z29	X30	Y30	Z30	X31	Y31	Z31	X32	Y32	Z32	X33	Y33	Z33	X34	Y34	Z34	X35	Y35	Z35	X36	Y36	Z36	X37	Y37	Z37	X38	Y38	Z38	X39	Y39	Z39	X40	Y40	Z40
2626	26.25	964.3532	1030.6459	-443.1735	767.8043	1038.9141	-505.5215	754.7555	1036.8441	-549.6348	754.2512	1045.9518	-599.6243	915.6187	1029.8004	-731.9515	1030.8189	739.7736	-411.7521	961.0706	703.1251	-390.4647	1010.6444	605.1618	-398.7084	1074.1567	496.7889	-522.2726	1083.9814	513.0332	-405.7275	1156.198	370.139	-390.0306	1207.9987	270.4381	-401.4288	1081.4749	332.8855	-385.4679	1137.427	233.1055	-387.699	1237.2609	90.8889	-388.947	1265.9751	128.9152	-478.2094	1208.7831	29.7954	-450.6441	1356.4367	111.441	-350.7101	1400.376	144.7194	-434.0005	857.5358	734.4215	-743.6954	822.5802	632.2666	-730.4069	777.1913	756.5912	-753.9067	745.8293	653.1862	-732.7134	751.3752	493.7482	-608.9198	739.1542	503.4817	-717.7971	691.226	375.1701	-732.598	616.4924	411.2391	-733.2716	571.4007	311.3119	-725.0684	538.7384	101.9955	-717.9452	573.4225	105.8163	-620.356	468.294	74.8713	-661.1975	633.4969	34.3853	-741.1432	676.1986	44.8716	-640.3451	889.5725	1424.8916	-406.0196	895.0362	1439.1766	-728.1512	839.0529	1472.5659	-570.085	795.5354	1145.812	-569.7556	974.3982	1373.2766	-571.2658	998.1373	1229.1682	-572.1169	753.8157	1371.6462	-498.4689
2627	26.26	966.6293	1027.6525	-441.6207	769.5637	1036.2852	-502.0262	756.1909	1034.1251	-546.0391	755.3267	1043.1633	-596.0281	915.3918	1026.5919	-730.2947	1033.2119	737.4047	-410.9336	963.4677	700.9183	-389.0407	1012.7261	602.8403	-397.882	1074.9797	494.5924	-521.9954	1085.4679	510.5954	-405.5699	1158.7249	367.8254	-390.5912	1211.3845	268.571	-402.6184	1084.3179	329.9157	-386.0929	1141.0425	230.6202	-389.0218	1241.958	89.4758	-391.0383	1270.2852	128.2137	-480.3135	1214.0862	28.5046	-453.0755	1360.9639	111.1407	-352.8044	1404.5321	145.4368	-435.9052	855.1765	732.5685	-742.6517	819.2973	630.6357	-729.8555	774.9016	755.664	-751.733	742.7693	652.3795	-730.9735	747.7355	491.9822	-608.6066	734.5703	502.5821	-717.4272	683.298	375.3572	-732.5524	609.5427	413.5047	-732.6327	561.9203	314.739	-724.6841	523.6281	105.6418	-718.6027	558.6543	108.9331	-621.2067	452.358	81.289	-661.615	616.1779	34.6211	-741.8189	658.5446	44.6595	-640.3868	890.5092	1422.3267	-404.3769	895.7133	1436.4407	-726.4399	839.7224	1469.8525	-568.5221	796.7233	1142.938	-567.3873	975.2911	1370.6097	-569.7408	999.2905	1226.5245	-570.7074	754.7521	1368.7368	-496.8802
2628	26.27	968.9983	1025.1216	-439.7328	771.4683	1033.9086	-498.5242	757.7962	1031.6446	-542.4418	756.6032	1040.5951	-592.4358	915.5842	1023.6865	-728.387	1036.1764	735.6603	-409.847	966.35	699.1555	-388.0204	1015.4806	601.0694	-397.5672	1077.3517	493.5179	-522.0023	1087.8043	508.743	-405.822	1160.8182	365.1814	-391.8056	1212.9429	265.7796	-404.4702	1086.3635	327.6002	-387.0337	1142.5062	228.1625	-390.6582	1242.1782	87.3602	-393.3917	1270.5366	125.9294	-482.9396	1213.7813	27.0265	-455.5569	1361.1442	108.1829	-355.5027	1404.7207	142.3166	-438.6146	853.6903	730.9227	-741.418	817.1978	629.0927	-729.2859	773.4597	754.6997	-749.3287	740.8529	651.4211	-729.1925	745.7634	489.9565	-608.48	731.6425	501.5205	-717.2194	676.7363	375.5936	-732.6709	604.1663	415.9311	-732.0491	553.7815	318.5416	-724.3996	509.2996	109.8635	-719.4803	544.6985	112.491	-622.3284	437.2844	88.8011	-662.2031	598.9997	34.9255	-742.6164	640.9899	44.3593	-640.4615	891.5424	1420.1232	-402.6052	896.3317	1433.9338	-724.6277	840.4278	1467.4072	-566.8286	798.138	1140.343	-564.8442	976.241	1368.3071	-568.0784	1000.6107	1224.2662	-569.0917	755.7943	1366.1233	-495.1191
2629	26.28	971.4666	1023.1334	-437.5168	773.559	1031.8678	-495.0727	759.614	1029.4901	-538.8974	758.1212	1038.3348	-588.9045	916.2731	1021.1664	-726.2233	1039.5621	734.4247	-408.4634	969.5643	697.7707	-387.3077	1018.6861	599.7531	-397.6801	1080.9145	493.3881	-522.2287	1090.8355	507.4062	-406.4018	1162.535	362.3356	-393.5574	1212.9205	262.268	-406.8471	1087.7239	325.9257	-388.1226	1142.1381	225.7922	-392.4205	1238.5295	84.7644	-395.7938	1267.2493	122.2905	-485.8876	1208.4703	25.5891	-457.8325	1357.6088	102.8559	-358.6978	1401.4863	135.6555	-442.0759	853.1661	729.4837	-740.0018	816.3922	627.624	-728.7084	772.9409	753.671	-746.726	740.171	650.2805	-727.4123	745.5873	487.6462	-608.6096	730.4987	500.2769	-717.2367	671.6631	375.8984	-732.9951	600.487	418.5238	-731.5128	547.1262	322.7416	-724.1813	495.9385	114.7199	-720.5455	531.7344	116.4768	-623.7103	423.3715	97.4882	-662.9268	581.9937	35.3771	-743.503	623.6011	44.0088	-640.5817	892.6528	1418.3467	-400.6988	896.8405	1431.6904	-722.7046	841.142	1465.2744	-564.9927	799.789	1138.0719	-562.1306	977.2313	1366.4185	-566.2755	1002.0872	1222.4504	-567.2493	756.9376	1363.8486	-493.1603
2630	26.29	974.0345	1021.7231	-435.0174	775.8564	1030.2452	-491.722	761.6675	1027.7422	-535.4552	759.9021	1036.4578	-585.4839	917.4992	1019.1003	-723.814	1043.1913	733.5864	-406.776	972.9382	696.7215	-386.755	1022.0841	598.8084	-398.0533	1085.0875	493.935	-522.5804	1094.3117	506.5062	-407.1606	1163.8734	359.4687	-395.6388	1211.5953	258.3556	-409.5285	1088.4936	324.8682	-389.1834	1140.3145	223.6249	-394.1159	1231.8117	82.011	-398.0441	1261.0979	117.7545	-488.9165	1199.0674	24.5209	-459.713	1351.1328	95.6845	-362.2418	1395.4672	126.1404	-446.1478	853.6831	728.2303	-738.431	816.9761	626.2031	-728.1403	773.4101	752.5345	-743.9815	740.8046	648.9164	-725.6848	747.3243	485.0236	-609.0557	731.2487	498.8257	-717.5267	668.2021	376.2822	-733.5535	598.6254	421.275	-731.017	542.1143	327.3376	-723.9858	483.757	120.2755	-721.7447	519.9492	120.8773	-625.3178	410.9302	107.4259	-663.7385	565.2232	36.1103	-744.4338	606.466	43.691	-640.7589	893.8234	1417.049	-398.6586	897.191	1429.7387	-720.6638	841.8359	1463.4891	-563.0064	801.6663	1136.1561	-559.2734	978.2413	1364.9833	-564.3441	1003.7008	1221.1235	-565.1772	758.1747	1361.937	-490.9774
2631	26.3	976.6863	1020.8928	-432.3145	778.3384	1029.1206	-488.5202	763.9358	1026.4735	-532.1636	761.9261	1035.021	-582.2227	919.241	1017.5359	-721.186	1046.8757	733.0785	-404.8037	976.3008	696.0118	-386.1862	1025.4263	598.1987	-398.455	1089.2036	494.8803	-522.9448	1097.9512	505.9922	-407.9106	1164.803	356.789	-397.7842	1209.244	254.4149	-412.2457	1088.7549	324.409	-390.0263	1137.4183	221.8136	-395.5456	1222.8688	79.4195	-399.9737	1252.7952	112.8743	-491.7661	1186.6451	24.1	-461.0853	1342.4929	87.3267	-365.9383	1387.304	114.698	-450.5894	855.2982	727.1262	-736.7471	819.0195	624.7974	-727.6013	774.913	751.2359	-741.172	742.816	647.2802	-724.0686	751.0706	482.0646	-609.8562	733.9733	497.1397	-718.1124	666.4822	376.74	-734.3508	598.7039	424.1569	-730.558	538.918	332.3039	-723.7684	472.9883	126.6042	-723.0065	509.5265	125.704	-627.0827	400.2672	118.6848	-664.5861	548.8016	37.3266	-745.3605	589.6987	43.5447	-640.9919	895.0458	1416.2628	-396.4926	897.3442	1428.1029	-718.5068	842.4832	1462.0807	-560.8696	803.7272	1134.6211	-556.3278	979.2459	1364.0299	-562.3104	1005.4186	1220.3186	-562.894	759.4933	1360.4008	-488.5477
2632	26.31	979.3784	1020.6365	-429.5109	780.9279	1028.5612	-485.5202	766.3403	1025.738	-529.0773	764.1213	1034.0558	-579.1762	921.4046	1016.4965	-718.3806	1050.439	732.8984	-402.5871	979.5068	695.6921	-385.4261	1028.5175	597.9453	-398.6333	1092.679	496.005	-523.2098	1101.5001	505.8549	-408.4659	1165.2784	354.4821	-399.7246	1206.0836	250.7799	-414.7369	1088.5657	324.5367	-390.4457	1133.7616	220.5069	-396.5092	1212.4165	77.2144	-401.4604	1242.9454	108.1579	-494.1896	1172.2307	24.4292	-461.9068	1332.3127	78.4622	-369.5472	1377.5279	102.3196	-455.0787	858.0336	726.131	-734.9954	822.558	623.3755	-727.1052	777.4658	749.7186	-738.384	746.2405	645.3245	-722.6216	756.8839	478.7628	-611.0126	738.7122	495.1981	-718.988	666.6313	377.2505	-735.3608	600.8422	427.122	-730.1373	537.7056	337.5923	-723.4933	463.8764	133.7913	-724.2461	500.6365	131.0133	-628.9011	391.6768	131.3224	-665.4143	532.9006	39.2969	-746.2341	573.4503	43.7627	-641.2661	896.3249	1415.9995	-394.2186	897.2759	1426.8069	-716.2484	843.0657	1461.072	-558.5945	805.8892	1133.4928	-553.3723	980.2173	1363.5729	-560.2106	1007.1904	1220.051	-560.4412	760.8745	1359.2488	-485.8587
2633	26.32	982.0335	1020.9592	-426.7151	783.4985	1028.6029	-482.781	768.7546	1025.5537	-526.2579	766.3697	1033.5584	-576.4062	923.8316	1015.9753	-715.4546	1053.7422	733.0951	-400.1846	982.457	695.8348	-384.3344	1031.243	598.1091	-398.3758	1095.1599	497.1881	-523.281	1104.766	506.1053	-408.6849	1165.2179	352.6513	-401.2475	1202.1993	247.6571	-416.8023	1087.921	325.2262	-390.2509	1129.5011	219.7965	-396.8361	1200.9106	75.4917	-402.4405	1231.939	103.9799	-495.9975	1156.626	25.4097	-462.199	1320.9614	69.7141	-372.806	1366.476	89.9253	-459.2565	861.8705	725.2109	-733.2161	827.5848	621.9175	-726.6544	781.0486	747.9367	-735.7035	751.0762	643.015	-721.3894	764.7598	475.1497	-612.4769	745.4493	492.9987	-720.1159	668.7583	377.7845	-736.5259	605.139	430.1121	-729.7625	538.6174	343.1395	-723.139	456.6618	141.9285	-725.3716	493.4391	136.9081	-630.6418	385.4373	145.3692	-666.1642	517.7581	42.3431	-746.9996	557.9217	44.5733	-641.5618	897.6733	1416.2482	-391.8679	896.9811	1425.8732	-713.9185	843.5751	1460.4767	-556.2081	808.0358	1132.7991	-550.493	981.126	1363.6088	-558.0876	1008.9501	1220.3114	-557.8816	762.2941	1358.4921	-482.9158
2634	26.33	984.5448	1021.8779	-424.0196	785.8978	1029.228	-480.3579	771.0305	1025.8844	-523.7638	768.5273	1033.4833	-573.9692	926.3243	1015.9312	-712.48	1056.6998	733.7244	-397.6702	985.1013	696.4961	-382.8349	1033.5613	598.7471	-397.5633	1096.5876	498.4046	-523.0864	1107.6006	506.7294	-408.498	1164.474	351.2885	-402.2336	1197.521	245.0949	-418.3316	1086.7119	326.4121	-389.3348	1124.601	219.6799	-396.4424	1188.5342	74.2496	-402.9198	1219.9541	100.5524	-497.1019	1140.3422	26.8152	-462.0413	1308.5635	61.6092	-375.4724	1354.2916	78.2876	-462.7912	866.7459	724.3451	-731.4416	834.0447	620.4247	-726.2366	785.6024	745.8691	-733.2061	757.275	640.3466	-720.3946	774.6126	471.3121	-614.1437	754.103	490.57	-721.4234	672.9268	378.3223	-737.7627	611.64	433.0761	-729.4449	541.7399	348.8774	-722.6974	451.5698	151.0922	-726.293	488.0926	143.5127	-632.1632	381.8007	160.8033	-666.7706	503.6836	46.7876	-747.5908	543.3695	46.2055	-641.8604	899.1026	1416.9761	-389.4899	896.4738	1425.3217	-711.5597	844.0074	1460.2949	-553.7535	810.039	1132.5615	-547.7623	981.9424	1364.1115	-555.9905	1010.6205	1221.0596	-555.2958	763.7236	1358.1423	-479.7494
2635	26.34	986.7903	1023.4	-421.4831	787.9761	1030.3534	-478.2838	773.0271	1026.6363	-521.6312	770.4489	1033.7462	-571.8965	928.6788	1016.2886	-709.5414	1059.2611	734.7923	-395.1264	987.4058	697.6812	-380.9272	1035.4492	599.865	-396.1934	1097.1298	499.6804	-522.5828	1109.8389	507.6525	-407.9089	1162.8364	350.2985	-402.6605	1191.8831	243.025	-419.3036	1084.7307	327.9797	-387.7364	1118.8868	220.0648	-395.3803	1175.2958	73.4438	-402.9734	1207.0403	97.9382	-497.5414	1123.6464	28.3925	-461.556	1295.1067	54.5579	-377.3852	1341.0122	67.9836	-465.4559	872.5552	723.5358	-729.6934	841.8312	618.9262	-725.8214	791.0334	743.5314	-730.9494	764.739	637.3558	-719.6279	786.2672	467.4006	-615.8578	764.5228	487.9842	-722.804	679.1336	378.8729	-738.9713	620.3082	435.9888	-729.1884	547.0847	354.7431	-722.1638	448.7969	161.3018	-726.9374	484.7527	150.9272	-633.3321	380.9721	177.5088	-667.1675	491.0583	52.8752	-747.9305	530.1067	48.8468	-642.144	900.6169	1418.1315	-387.1483	895.7818	1425.1644	-709.2224	844.3561	1460.5168	-551.2854	811.7878	1132.7843	-545.2235	982.64	1365.0316	-553.9719	1012.12	1222.2244	-552.7764	765.1295	1358.2085	-476.4153
